HIERARCHY
ROOT joint_Root
{
	OFFSET 0.0 0.0 0.0
	CHANNELS 6 Xposition Yposition Zposition Zrotation Xrotation Yrotation 
	JOINT Hips
	{
		OFFSET -17.1583 93.1646 452.98
		CHANNELS 6 Xposition Yposition Zposition Zrotation Xrotation Yrotation 
		JOINT Spine
		{
			OFFSET 15.7357 0.0 0.0
			CHANNELS 6 Xposition Yposition Zposition Zrotation Xrotation Yrotation 
			JOINT Chest
			{
				OFFSET 8.98455 -0.406207 0.0
				CHANNELS 6 Xposition Yposition Zposition Zrotation Xrotation Yrotation 
				JOINT Neck
				{
					OFFSET 16.3773 0.0 0.0
					CHANNELS 6 Xposition Yposition Zposition Zrotation Xrotation Yrotation 
					JOINT Head
					{
						OFFSET 6.45672 0.0 0.0
						CHANNELS 6 Xposition Yposition Zposition Zrotation Xrotation Yrotation 
						End Site
						{
							OFFSET 0.0 0.0 0.0
						}
					}
				}
				JOINT Shoulder_L
				{
					OFFSET 12.9942 -0.242716 4.98039
					CHANNELS 6 Xposition Yposition Zposition Zrotation Xrotation Yrotation 
					JOINT UpperArm_L
					{
						OFFSET 5.34809 0.0 0.0
						CHANNELS 6 Xposition Yposition Zposition Zrotation Xrotation Yrotation 
						JOINT LowerArm_L
						{
							OFFSET 24.3286 1.87007e-05 0.0
							CHANNELS 6 Xposition Yposition Zposition Zrotation Xrotation Yrotation 
							JOINT Hand_L
							{
								OFFSET 22.2916 0.0 0.0
								CHANNELS 6 Xposition Yposition Zposition Zrotation Xrotation Yrotation 
								End Site
								{
									OFFSET 0.0 0.0 0.0
								}
							}
						}
					}
				}
				JOINT Shoulder_R
				{
					OFFSET 12.9945 -0.242716 -4.98039
					CHANNELS 6 Xposition Yposition Zposition Zrotation Xrotation Yrotation 
					JOINT UpperArm_R
					{
						OFFSET -5.34813 0.0 0.0
						CHANNELS 6 Xposition Yposition Zposition Zrotation Xrotation Yrotation 
						JOINT LowerArm_R
						{
							OFFSET -24.3289 0.000322201 0.0
							CHANNELS 6 Xposition Yposition Zposition Zrotation Xrotation Yrotation 
							JOINT Hand_R
							{
								OFFSET -22.2915 -0.000108084 0.0
								CHANNELS 6 Xposition Yposition Zposition Zrotation Xrotation Yrotation 
								End Site
								{
									OFFSET 0.0 0.0 0.0
								}
							}
						}
					}
				}
			}
		}
		JOINT UpperLeg_L
		{
			OFFSET -2.19248 -6.46944 0.0
			CHANNELS 6 Xposition Yposition Zposition Zrotation Xrotation Yrotation 
			JOINT LowerLeg_L
			{
				OFFSET 39.0811 0.0 -1.23785e-05
				CHANNELS 6 Xposition Yposition Zposition Zrotation Xrotation Yrotation 
				JOINT Foot_L
				{
					OFFSET 40.9854 0.0 -1.26872e-05
					CHANNELS 6 Xposition Yposition Zposition Zrotation Xrotation Yrotation 
					JOINT Toes_L
					{
						OFFSET 11.7543 0.0 0.0
						CHANNELS 6 Xposition Yposition Zposition Zrotation Xrotation Yrotation 
						End Site
						{
							OFFSET 0.0 0.0 0.0
						}
					}
				}
			}
		}
		JOINT UpperLeg_R
		{
			OFFSET -2.19251 6.46944 0.0
			CHANNELS 6 Xposition Yposition Zposition Zrotation Xrotation Yrotation 
			JOINT LowerLeg_R
			{
				OFFSET -39.0811 -0.00228153 -0.0401928
				CHANNELS 6 Xposition Yposition Zposition Zrotation Xrotation Yrotation 
				JOINT Foot_R
				{
					OFFSET -40.9854 0.0 0.0
					CHANNELS 6 Xposition Yposition Zposition Zrotation Xrotation Yrotation 
					JOINT Toes_R
					{
						OFFSET -11.7543 0.0 0.0
						CHANNELS 6 Xposition Yposition Zposition Zrotation Xrotation Yrotation 
						End Site
						{
							OFFSET 0.0 0.0 0.0
						}
					}
				}
			}
		}
	}
}
MOTION
Frames:	8
Frame Time:	0.0333333
0.000000 0.000000 0.000000 0.000000 0.000000 -0.000000 -3.912400 91.737500 -0.715644 84.524700 1.215740 6.380350 15.735700 0.000005 -0.000001 74.427600 86.471200 -71.830600 8.984550 -0.406207 -0.000000 -0.914856 -2.090860 5.175500 16.377300 -0.000001 -0.000001 9.728640 2.824980 -2.953580 6.456720 -0.000001 -0.000000 -2.454000 3.060340 -1.695930 12.994200 -0.242716 4.980390 -92.975600 8.464270 -70.549300 5.348090 -0.000007 -0.000001 -73.097800 28.281400 0.795053 24.328600 0.000019 0.000005 11.076800 27.804000 -22.768100 22.291600 -0.000001 0.000005 -2.254450 4.984250 7.652530 12.994500 -0.242716 -4.980390 87.512500 6.474810 -68.931000 -5.348130 -0.000001 -0.000004 -70.931800 12.786200 -2.418210 -24.328900 0.000322 -0.000009 1.403240 3.380320 -22.575200 -22.291500 -0.000108 -0.000004 -1.246240 5.244490 1.577960 -2.192480 -6.469440 -0.000000 -172.587000 5.549090 -2.155210 39.081100 -0.000007 -0.000012 0.383291 -0.692628 28.960400 40.985400 -0.000006 -0.000013 -0.614803 4.269530 -76.583000 11.754300 -0.000000 0.000003 0.000164 0.164819 -9.891960 -2.192510 6.469440 -0.000001 -170.425000 9.345710 -174.712000 -39.081100 -0.002282 -0.040193 0.145300 -0.484136 16.343900 -40.985400 0.000008 0.000006 6.173270 2.155790 -71.876600 -11.754300 -0.000006 -0.000006 -0.011279 0.280629 -5.169450
0.000000 0.000000 0.000000 0.000000 0.000000 -0.000000 -3.907990 91.745700 -0.724068 84.501900 1.169870 6.330590 15.735700 0.000005 -0.000001 74.435900 86.481100 -71.830500 8.984550 -0.406207 -0.000000 -0.933531 -2.085630 5.192180 16.377300 -0.000001 -0.000001 9.687030 2.830800 -2.903570 6.456720 -0.000001 -0.000000 -2.622790 3.038800 -1.644730 12.994200 -0.242716 4.980390 -93.007100 8.519040 -70.474700 5.348090 -0.000007 -0.000001 -73.137800 28.236500 0.870052 24.328600 0.000019 0.000005 11.098000 27.830200 -22.790400 22.291600 -0.000001 0.000005 -2.228720 4.987500 7.584080 12.994500 -0.242716 -4.980390 87.487900 6.510040 -68.845400 -5.348130 -0.000001 -0.000004 -70.834300 11.979900 -2.020360 -24.328900 0.000322 -0.000009 1.619830 3.594520 -24.290500 -22.291500 -0.000108 -0.000004 -1.382350 5.231950 1.905350 -2.192480 -6.469440 -0.000000 -172.565000 5.548320 -2.184100 39.081100 -0.000007 -0.000012 0.384240 -0.694996 28.937700 40.985400 -0.000006 -0.000013 -0.625612 4.236530 -76.624900 11.754300 -0.000000 0.000003 0.000023 0.167243 -9.793530 -2.192510 6.469440 -0.000001 -170.392000 9.261710 -174.749000 -39.081100 -0.002282 -0.040193 0.142839 -0.476823 16.308900 -40.985400 0.000008 0.000006 6.057710 2.124930 -71.826000 -11.754300 -0.000006 -0.000006 -0.011069 0.279128 -5.230910
0.000000 0.000000 0.000000 0.000000 0.000000 -0.000000 -3.910170 91.749800 -0.741852 84.503100 1.124620 6.274770 15.735700 0.000005 -0.000001 74.499900 86.487600 -71.902200 8.984550 -0.406207 -0.000000 -0.944460 -2.074240 5.176600 16.377300 -0.000001 -0.000001 9.556760 2.837870 -2.773840 6.456720 -0.000001 -0.000000 -2.789210 3.117960 -1.571550 12.994200 -0.242716 4.980390 -93.020900 8.539590 -70.435200 5.348090 -0.000007 -0.000001 -73.199200 28.120000 0.934993 24.328600 0.000019 0.000005 11.107000 27.793500 -22.832300 22.291600 -0.000001 0.000005 -2.089320 4.988460 7.563760 12.994500 -0.242716 -4.980390 87.449100 6.589370 -68.782000 -5.348130 -0.000001 -0.000004 -70.674800 10.717200 -1.336730 -24.328900 0.000322 -0.000009 2.340640 4.533400 -27.352300 -22.291500 -0.000108 -0.000004 -1.932770 5.197800 2.775940 -2.192480 -6.469440 -0.000000 -172.563000 5.511550 -2.238490 39.081100 -0.000007 -0.000012 0.383872 -0.694755 28.922800 40.985400 -0.000006 -0.000013 -0.620311 4.235740 -76.588200 11.754300 -0.000000 0.000003 0.000026 0.167190 -9.795710 -2.192510 6.469440 -0.000001 -170.419000 9.302850 -174.832000 -39.081100 -0.002282 -0.040193 0.141093 -0.469537 16.352200 -40.985400 0.000008 0.000006 5.961240 2.255330 -71.790700 -11.754300 -0.000006 -0.000006 -0.010775 0.277009 -5.317610
0.000000 0.000000 0.000000 0.000000 0.000000 -0.000000 -3.899940 91.758700 -0.772909 84.463500 1.112810 6.142000 15.735700 0.000005 -0.000001 74.250800 86.498500 -71.627000 8.984550 -0.406207 -0.000000 -0.972558 -2.100340 5.228010 16.377300 -0.000001 -0.000001 9.326830 2.939320 -2.626290 6.456720 -0.000001 -0.000000 -3.068780 3.245160 -1.424280 12.994200 -0.242716 4.980390 -93.054200 8.603420 -70.370400 5.348090 -0.000007 -0.000001 -73.226900 28.033200 0.979690 24.328600 0.000019 0.000005 11.132000 27.687900 -22.951700 22.291600 -0.000001 0.000005 -2.136780 4.988160 7.570250 12.994500 -0.242716 -4.980390 87.448300 6.555650 -68.676700 -5.348130 -0.000001 -0.000004 -70.470300 9.324060 -0.451458 -24.328900 0.000322 -0.000009 3.148580 5.063170 -31.942500 -22.291500 -0.000108 -0.000004 -2.787950 5.140820 4.164430 -2.192480 -6.469440 -0.000000 -172.512000 5.474400 -2.395490 39.081100 -0.000007 -0.000012 0.385582 -0.697762 28.925900 40.985400 -0.000006 -0.000013 -0.625879 4.221520 -76.579500 11.754300 -0.000000 0.000003 0.000040 0.166941 -9.805800 -2.192510 6.469440 -0.000001 -170.367000 9.302080 -174.972000 -39.081100 -0.002282 -0.040193 0.138813 -0.462957 16.312300 -40.985400 0.000008 0.000006 5.901860 2.296450 -71.746100 -11.754300 -0.000006 -0.000006 -0.011004 0.278657 -5.250160
0.000000 0.000000 0.000000 0.000000 0.000000 -0.000000 -3.890680 91.775000 -0.816931 84.418500 1.056640 5.997060 15.735700 0.000005 -0.000001 74.245700 86.505900 -71.610100 8.984550 -0.406207 -0.000000 -0.986691 -2.098160 5.251360 16.377300 -0.000001 -0.000001 9.117360 3.051260 -2.391090 6.456720 -0.000001 -0.000000 -3.580800 3.440740 -1.032580 12.994200 -0.242716 4.980390 -93.075000 8.645980 -70.335500 5.348090 -0.000007 -0.000001 -73.194000 28.088300 0.942415 24.328600 0.000019 0.000005 11.068600 27.489700 -22.967300 22.291600 -0.000001 0.000005 -2.136720 4.988540 7.562190 12.994500 -0.242716 -4.980390 87.416300 6.576870 -68.497000 -5.348130 -0.000001 -0.000004 -70.172200 7.603710 0.608744 -24.328900 0.000322 -0.000009 4.117320 5.298370 -37.938200 -22.291500 -0.000108 -0.000004 -3.740080 5.091960 5.299860 -2.192480 -6.469440 -0.000000 -172.449000 5.423150 -2.551450 39.081100 -0.000007 -0.000012 0.379908 -0.688531 28.889300 40.985400 -0.000006 -0.000013 -0.629765 4.206200 -76.505400 11.754300 -0.000000 0.000003 0.000138 0.165272 -9.873580 -2.192510 6.469440 -0.000001 -170.340000 9.315770 -175.129000 -39.081100 -0.002282 -0.040193 0.134846 -0.450619 16.270600 -40.985400 0.000008 0.000006 5.810570 2.457540 -71.698800 -11.754300 -0.000006 -0.000006 -0.011460 0.281907 -5.117140
0.000000 0.000000 0.000000 0.000000 0.000000 -0.000000 -3.877570 91.792400 -0.860147 84.365100 1.016260 5.841330 15.735700 0.000005 -0.000001 73.481000 86.519100 -70.809700 8.984550 -0.406207 -0.000000 -1.035220 -2.184060 5.321310 16.377300 -0.000001 -0.000001 8.917370 3.236210 -2.085730 6.456720 -0.000001 -0.000000 -4.115780 3.790900 -0.580766 12.994200 -0.242716 4.980390 -93.122000 8.741270 -70.257100 5.348090 -0.000007 -0.000001 -73.148500 28.241600 1.025000 24.328600 0.000019 0.000005 11.089300 27.386800 -23.078200 22.291600 -0.000001 0.000005 -2.107730 4.988490 7.563060 12.994500 -0.242716 -4.980390 87.430100 6.485700 -68.329400 -5.348130 -0.000001 -0.000004 -69.979400 5.520870 1.783460 -24.328900 0.000322 -0.000009 5.209070 5.187130 -45.243100 -22.291500 -0.000108 -0.000004 -4.003250 5.051190 6.209290 -2.192480 -6.469440 -0.000000 -172.399000 5.416190 -2.722340 39.081100 -0.000007 -0.000012 0.383016 -0.694735 28.869400 40.985400 -0.000006 -0.000013 -0.637834 4.154330 -76.508400 11.754300 -0.000000 0.000003 0.000023 0.167241 -9.793640 -2.192510 6.469440 -0.000001 -170.303000 9.277620 -175.326000 -39.081100 -0.002282 -0.040193 0.129472 -0.431835 16.283900 -40.985400 0.000008 0.000006 5.498650 2.554670 -71.618200 -11.754300 -0.000006 -0.000006 -0.011229 0.280271 -5.184100
0.000000 0.000000 0.000000 0.000000 0.000000 -0.000000 -3.856770 91.800100 -0.897794 84.341300 0.947916 5.723150 15.735700 0.000005 -0.000001 72.741000 86.512100 -70.054200 8.984550 -0.406207 -0.000000 -1.045410 -2.275670 5.351130 16.377300 -0.000001 -0.000001 8.741170 3.479630 -1.680760 6.456720 -0.000001 -0.000000 -4.750380 4.269970 0.109567 12.994200 -0.242716 4.980390 -93.141200 8.772500 -70.209700 5.348090 -0.000007 -0.000001 -73.117200 28.248800 1.062190 24.328600 0.000019 0.000005 11.027000 27.149500 -23.124800 22.291600 -0.000001 0.000005 -2.306140 4.987790 7.578210 12.994500 -0.242716 -4.980390 87.439300 6.405790 -68.157000 -5.348130 -0.000001 -0.000004 -69.783500 3.686130 2.788450 -24.328900 0.000322 -0.000009 5.913210 4.419300 -53.358300 -22.291500 -0.000108 -0.000004 -2.706250 5.041350 6.427730 -2.192480 -6.469440 -0.000000 -172.383000 5.381140 -2.849160 39.081100 -0.000007 -0.000012 0.380840 -0.690996 28.862100 40.985400 -0.000006 -0.000013 -0.632718 4.107790 -76.461200 11.754300 -0.000000 0.000003 0.000141 0.165225 -9.875510 -2.192510 6.469440 -0.000001 -170.282000 9.302810 -175.425000 -39.081100 -0.002282 -0.040193 0.128736 -0.431311 16.212500 -40.985400 0.000008 0.000006 5.585120 2.601460 -71.581500 -11.754300 -0.000006 -0.000006 -0.011428 0.281681 -5.126390
0.000000 0.000000 0.000000 0.000000 0.000000 -0.000000 -3.832790 91.815100 -0.933881 84.292700 0.947478 5.525390 15.735700 0.000005 -0.000001 71.193600 86.531100 -68.481300 8.984550 -0.406207 -0.000000 -1.135140 -2.446590 5.399120 16.377300 -0.000001 -0.000001 8.588640 3.796910 -1.228380 6.456720 -0.000001 -0.000000 -5.332600 4.807340 1.076410 12.994200 -0.242716 4.980390 -93.151000 8.795520 -70.199800 5.348090 -0.000007 -0.000001 -73.072300 28.368000 1.124040 24.328600 0.000019 0.000005 11.112000 27.218400 -23.239500 22.291600 -0.000001 0.000005 -2.382500 4.985840 7.619120 12.994500 -0.242716 -4.980390 87.422400 6.399910 -68.008000 -5.348130 -0.000001 -0.000004 -69.455000 2.014550 3.508670 -24.328900 0.000322 -0.000009 6.325750 3.365130 -62.102400 -22.291500 -0.000108 -0.000004 -0.509368 5.067170 5.862830 -2.192480 -6.469440 -0.000000 -172.348000 5.466760 -3.068740 39.081100 -0.000007 -0.000012 0.381523 -0.692665 28.847000 40.985400 -0.000006 -0.000013 -0.654438 3.996500 -76.443200 11.754300 -0.000000 0.000003 0.000106 0.165828 -9.851020 -2.192510 6.469440 -0.000001 -170.248000 9.360460 -175.625000 -39.081100 -0.002282 -0.040193 0.125016 -0.420318 16.146600 -40.985400 0.000008 0.000006 5.488290 2.739690 -71.479300 -11.754300 -0.000006 -0.000006 -0.011109 0.279414 -5.219180
